<?xml version="1.0" encoding="iso-8859-1"?>
<!-- Generator: Adobe Illustrator 18.0.0, SVG Export Plug-In . SVG Version: 6.00 Build 0)  -->
<!DOCTYPE svg PUBLIC "-//W3C//DTD SVG 1.1//EN" "http://www.w3.org/Graphics/SVG/1.1/DTD/svg11.dtd">
<svg version="1.1" id="Capa_1" xmlns="http://www.w3.org/2000/svg" xmlns:xlink="http://www.w3.org/1999/xlink" x="0px" y="0px"
	 viewBox="0 0 226.434 226.434" style="enable-background:new 0 0 226.434 226.434;" xml:space="preserve">
<g>
	<path d="M222.596,14.367c-2.368-1.326-5.269-1.268-7.585,0.152l-48.936,30.026l-48.936-30.026c-2.406-1.477-5.438-1.477-7.845,0
		L60.358,44.546L11.422,14.519c-2.315-1.421-5.217-1.479-7.585-0.152C1.468,15.693,0,18.197,0,20.912v152.177
		c0,2.608,1.355,5.029,3.578,6.393l52.858,32.433c2.406,1.477,5.438,1.477,7.845,0l48.936-30.026l48.936,30.026
		c1.203,0.738,2.563,1.107,3.922,1.107s2.719-0.369,3.922-1.107l52.858-32.433c2.223-1.364,3.578-3.785,3.578-6.393V20.912
		C226.434,18.197,224.966,15.693,222.596,14.367z M67.475,57.778l38.242-23.465v134.579l-38.242,23.465V57.778z M120.717,34.313
		l37.858,23.229v134.579l-37.858-23.229V34.313z M15,34.313l37.475,22.994v134.579L15,168.892V34.313z M211.434,168.892
		l-37.858,23.229V57.542l37.858-23.229V168.892z"/>
</g>
<g>
</g>
<g>
</g>
<g>
</g>
<g>
</g>
<g>
</g>
<g>
</g>
<g>
</g>
<g>
</g>
<g>
</g>
<g>
</g>
<g>
</g>
<g>
</g>
<g>
</g>
<g>
</g>
<g>
</g>
</svg>
