<?xml version="1.0" encoding="iso-8859-1"?>
<!-- Generator: Adobe Illustrator 18.0.0, SVG Export Plug-In . SVG Version: 6.00 Build 0)  -->
<!DOCTYPE svg PUBLIC "-//W3C//DTD SVG 1.1//EN" "http://www.w3.org/Graphics/SVG/1.1/DTD/svg11.dtd">
<svg version="1.1" id="Capa_1" xmlns="http://www.w3.org/2000/svg" xmlns:xlink="http://www.w3.org/1999/xlink" x="0px" y="0px"
	 viewBox="0 0 238.838 238.838" style="enable-background:new 0 0 238.838 238.838;" xml:space="preserve">
<g>
	<path d="M188.93,60.818c0.029-0.115,0.051-0.231,0.074-0.347c0.022-0.112,0.045-0.224,0.062-0.337
		c0.019-0.125,0.033-0.25,0.046-0.375c0.006-0.062,0.018-0.124,0.023-0.186l3.608-47.518c0.237-3.119-1.487-6.057-4.324-7.372
		c-2.837-1.316-6.193-0.731-8.42,1.464l-33.932,33.46c-0.021,0.021-0.037,0.047-0.058,0.068c-0.271,0.274-0.526,0.566-0.755,0.885
		c-0.023,0.031-0.042,0.064-0.064,0.096c-0.209,0.3-0.398,0.618-0.565,0.955c-0.015,0.029-0.036,0.055-0.05,0.084l-9.088,18.888
		V22.607c0-4.143-3.358-7.5-7.5-7.5c-4.143,0-7.5,3.358-7.5,7.5V91h-4.796V52.128c0-0.898-0.161-1.789-0.477-2.63L98.5,4.87
		C97.404,1.941,94.604,0,91.477,0s-5.927,1.941-7.023,4.87L67.742,49.498c-0.315,0.841-0.477,1.732-0.477,2.63V91H53.574
		c-4.142,0-7.5,3.358-7.5,7.5v132.838c0,4.142,3.358,7.5,7.5,7.5h125.822c4.142,0,7.5-3.358,7.5-7.5V98.5c0-4.142-3.358-7.5-7.5-7.5
		h-4.307l13.37-28.841c0.101-0.218,0.189-0.44,0.269-0.666c0.033-0.092,0.057-0.185,0.086-0.278
		C188.855,61.083,188.897,60.952,188.93,60.818z M174.996,47.651L164.3,42.692l11.969-11.803L174.996,47.651z M91.477,28.886
		l5.895,15.742h-11.79L91.477,28.886z M82.265,59.628h18.424V91H82.265V59.628z M171.896,223.838H61.074V106h110.822V223.838z
		 M137.496,91l17.389-36.14l16.813,7.794L158.557,91H137.496z"/>
</g>
<g>
</g>
<g>
</g>
<g>
</g>
<g>
</g>
<g>
</g>
<g>
</g>
<g>
</g>
<g>
</g>
<g>
</g>
<g>
</g>
<g>
</g>
<g>
</g>
<g>
</g>
<g>
</g>
<g>
</g>
</svg>
